<?xml version="1.0"?>
<svg xmlns="http://www.w3.org/2000/svg" xmlns:xlink="http://www.w3.org/1999/xlink" id="Layer_1" data-name="Layer 1" viewBox="0 0 512 512" width="512" height="512"><defs><linearGradient id="linear-gradient" x1="283.82" y1="492" x2="283.82" y2="27.569" gradientUnits="userSpaceOnUse"><stop offset="0.322" stop-color="#a163f5"/><stop offset="0.466" stop-color="#b074ee"/><stop offset="0.752" stop-color="#d8a1dd"/><stop offset="0.898" stop-color="#efbad3"/></linearGradient><linearGradient id="linear-gradient-2" x1="256" y1="492" x2="256" y2="27.569" xlink:href="#linear-gradient"/></defs><title>Female User</title><path d="M288.815,442.56h-9.99a7,7,0,0,0,0,14h9.99a7,7,0,0,0,0-14Z" style="fill:url(#linear-gradient)"/><path d="M384.3,367.278,327.124,347.9l9.778-12,21.088,19.06a7,7,0,0,0,4.693,1.807,6.8,6.8,0,0,0,.853-.053l24.466-3a7,7,0,0,0,6-8.361l-24.48-118.7a30.769,30.769,0,0,0,13.6-33.42,24.626,24.626,0,0,0-15.773-17.526l.15-41.4a111.607,111.607,0,1,0-223.211-.666l.1,35.811c0,.055,0,.111,0,.167l.138,6.13a24.631,24.631,0,0,0-15.667,17.488,30.789,30.789,0,0,0,16.546,35.051l-31.052,116.68a7,7,0,0,0,5.092,8.6,201.868,201.868,0,0,0,25.252,3.965,7,7,0,0,0,5.8-2.15l17.014-17.964.707,13.222a6.992,6.992,0,0,0,.691,2.673L127.7,367.278A56.973,56.973,0,0,0,89,421.261v61.728a7,7,0,0,0,7,7H416a7,7,0,0,0,7-7V421.261A56.973,56.973,0,0,0,384.3,367.278Zm-172.143-13.84L248.9,390.086v29.675l-60.074-58.417Zm78.827-10.929L256,377.4l-34.98-34.886v-15.93A90.2,90.2,0,0,0,246.9,330.37H265.1a90.174,90.174,0,0,0,25.876-3.792ZM262.9,390.286l36.948-36.848,23.326,7.906L262.9,419.956Zm102.105-47.857-24.182-21.857a7,7,0,0,0-10.12.772l-17.73,21.761L304.98,340.4V321.113a101.541,101.541,0,0,0,30.771-23.367,111.947,111.947,0,0,0,24.781-45.391l18.229,88.387Zm-72.69-216.871c8.568,17.212,23.776,31.71,42.811,41.136a120,120,0,0,1-56.354-28.788A140.884,140.884,0,0,0,292.315,125.558ZM255.9,36.011a97.606,97.606,0,0,1,97.6,98.225l-.091,24.9c-24.137-8.106-43.136-24.831-50.944-45.22a180.661,180.661,0,0,0,15.416-23.087A7,7,0,0,0,305.7,83.938c-36.975,65.447-90.26,68.423-115.867,69.853l-.377.021c-6.314.354-12.269,4.792-15.541,11.582a8.8,8.8,0,0,1-4.167,4.09,8.975,8.975,0,0,1-10.178-1.758l-1.176-1.176-.1-32.933A97.718,97.718,0,0,1,255.9,36.011ZM142.469,196.563a10.861,10.861,0,0,1,9.839-8.31,7,7,0,0,0,6.121-5.161,22.934,22.934,0,0,0,28.1-11.621c1.062-2.2,2.753-3.627,3.71-3.68l.376-.021c13.1-.732,35.032-1.958,58.426-12.016a128.621,128.621,0,0,0,18.1-9.558,133.958,133.958,0,0,0,86.427,36.862,7,7,0,0,0,6.124,5.195,10.859,10.859,0,0,1,9.838,8.31,16.768,16.768,0,0,1-13.355,20.493,7,7,0,0,0-5.793,6.895v.142a97.051,97.051,0,0,1-25.011,64.26,85.652,85.652,0,0,1-34.223,23.421h-.167v.059A76.247,76.247,0,0,1,265.1,316.37H246.9a76.269,76.269,0,0,1-25.875-4.536v-.06h-.168a85.652,85.652,0,0,1-34.223-23.421,97.051,97.051,0,0,1-25.011-64.26v-.142a7,7,0,0,0-5.793-6.895,16.772,16.772,0,0,1-13.356-20.493Zm42.82,146.992q-1.746-.069-3.427-.131L180.63,320.4a7,7,0,0,0-12.072-4.439L142.73,343.229c-5.257-.611-9.626-1.287-12.92-1.864l22.727-85.4a111.845,111.845,0,0,0,23.71,41.778,101.548,101.548,0,0,0,30.773,23.368V340.4l-10.277,3.483C192.869,343.845,189.02,343.7,185.289,343.555ZM103,421.261a42.981,42.981,0,0,1,29.2-40.724l41.737-14.146,74.966,72.9v36.7H103Zm306,54.728H262.9v-36.5l75.166-73.093L379.8,380.537A42.978,42.978,0,0,1,409,421.261Z" style="fill:url(#linear-gradient-2)"/></svg>
